<?xml version="1.0" encoding="utf-8" standalone="no"?>
<!DOCTYPE svg PUBLIC "-//W3C//DTD SVG 1.1//EN"
  "http://www.w3.org/Graphics/SVG/1.1/DTD/svg11.dtd">
<svg xmlns:xlink="http://www.w3.org/1999/xlink" width="1144.559383pt" height="856.156875pt" viewBox="0 0 1144.559383 856.156875" xmlns="http://www.w3.org/2000/svg" version="1.1">
 <metadata>
  <rdf:RDF xmlns:dc="http://purl.org/dc/elements/1.1/" xmlns:cc="http://creativecommons.org/ns#" xmlns:rdf="http://www.w3.org/1999/02/22-rdf-syntax-ns#">
   <cc:Work>
    <dc:type rdf:resource="http://purl.org/dc/dcmitype/StillImage"/>
    <dc:date>2025-09-20T16:51:51.518063</dc:date>
    <dc:format>image/svg+xml</dc:format>
    <dc:creator>
     <cc:Agent>
      <dc:title>Matplotlib v3.5.1, https://matplotlib.org/</dc:title>
     </cc:Agent>
    </dc:creator>
   </cc:Work>
  </rdf:RDF>
 </metadata>
 <defs>
  <style type="text/css">*{stroke-linejoin: round; stroke-linecap: butt}</style>
 </defs>
 <g id="figure_1">
  <g id="patch_1">
   <path d="M 0 856.156875 
L 1144.559383 856.156875 
L 1144.559383 0 
L 0 0 
z
" style="fill: #ffffff"/>
  </g>
  <g id="axes_1">
   <g id="line2d_1">
    <path d="M 624.668178 622.345528 
L 254.463344 401.759545 
" clip-path="url(#pba69d086b6)" style="fill: none; stroke: #546e7a; stroke-width: 2.4; stroke-linecap: square"/>
   </g>
   <g id="line2d_2">
    <path d="M 624.668178 622.345528 
L 218.021026 583.416738 
" clip-path="url(#pba69d086b6)" style="fill: none; stroke: #546e7a; stroke-width: 2.4; stroke-linecap: square"/>
   </g>
   <g id="line2d_3">
    <path d="M 624.668178 622.345528 
L 225.359408 591.632179 
" clip-path="url(#pba69d086b6)" style="fill: none; stroke: #546e7a; stroke-width: 2.4; stroke-linecap: square"/>
   </g>
   <g id="line2d_4">
    <path d="M 218.021026 583.416738 
L 254.463344 401.759545 
" clip-path="url(#pba69d086b6)" style="fill: none; stroke: #546e7a; stroke-width: 2.4; stroke-linecap: square"/>
   </g>
   <g id="line2d_5">
    <path d="M 225.359408 591.632179 
L 254.463344 401.759545 
" clip-path="url(#pba69d086b6)" style="fill: none; stroke: #546e7a; stroke-width: 2.4; stroke-linecap: square"/>
   </g>
   <g id="line2d_6">
    <path d="M 218.021026 583.416738 
L 225.359408 591.632179 
" clip-path="url(#pba69d086b6)" style="fill: none; stroke: #546e7a; stroke-width: 2.4; stroke-linecap: square"/>
   </g>
   <g id="line2d_7">
    <path d="M 624.668178 622.345528 
L 53.326636 811.93142 
" clip-path="url(#pba69d086b6)" style="fill: none; stroke-dasharray: 3.75,2.5; stroke-dashoffset: 0; stroke: #9e9e9e; stroke-opacity: 0.6; stroke-width: 1.25"/>
   </g>
   <g id="line2d_8">
    <path d="M 624.668178 622.345528 
L 892.660317 579.357937 
" clip-path="url(#pba69d086b6)" style="fill: none; stroke-dasharray: 3.75,2.5; stroke-dashoffset: 0; stroke: #9e9e9e; stroke-opacity: 0.6; stroke-width: 1.25"/>
   </g>
   <g id="line2d_9">
    <path d="M 254.463344 401.759545 
L 958.053361 463.508526 
" clip-path="url(#pba69d086b6)" style="fill: none; stroke-dasharray: 3.75,2.5; stroke-dashoffset: 0; stroke: #9e9e9e; stroke-opacity: 0.6; stroke-width: 1.25"/>
   </g>
   <g id="line2d_10">
    <path d="M 254.463344 401.759545 
L 975.859364 444.308908 
" clip-path="url(#pba69d086b6)" style="fill: none; stroke-dasharray: 3.75,2.5; stroke-dashoffset: 0; stroke: #9e9e9e; stroke-opacity: 0.6; stroke-width: 1.25"/>
   </g>
   <g id="line2d_11">
    <path d="M 254.463344 401.759545 
L 464.541946 331.266272 
" clip-path="url(#pba69d086b6)" style="fill: none; stroke-dasharray: 3.75,2.5; stroke-dashoffset: 0; stroke: #9e9e9e; stroke-opacity: 0.6; stroke-width: 1.25"/>
   </g>
   <g id="line2d_12">
    <path d="M 218.021026 583.416738 
L 450.078495 71.42233 
" clip-path="url(#pba69d086b6)" style="fill: none; stroke-dasharray: 3.75,2.5; stroke-dashoffset: 0; stroke: #9e9e9e; stroke-opacity: 0.6; stroke-width: 1.25"/>
   </g>
   <g id="line2d_13">
    <path d="M 225.359408 591.632179 
L 331.774013 547.045157 
" clip-path="url(#pba69d086b6)" style="fill: none; stroke-dasharray: 3.75,2.5; stroke-dashoffset: 0; stroke: #9e9e9e; stroke-opacity: 0.6; stroke-width: 1.25"/>
   </g>
   <g id="text_1">
    <g id="patch_2">
     <path d="M 1027.05993 827.560075 
L 1137.359383 827.560075 
Q 1140.399383 827.560075 1140.399383 824.520075 
L 1140.399383 783.412091 
Q 1140.399383 780.372091 1137.359383 780.372091 
L 1027.05993 780.372091 
Q 1024.01993 780.372091 1024.01993 783.412091 
L 1024.01993 824.520075 
Q 1024.01993 827.560075 1027.05993 827.560075 
z
" style="fill: #ffffff; opacity: 0.92; stroke: #b0bec5; stroke-linejoin: miter"/>
    </g>
    <!-- Environment Statistics: -->
    <g transform="translate(1027.05993 790.630606)scale(0.095 -0.095)">
     <defs>
      <path id="DejaVuSans-45" d="M 628 4666 
L 3578 4666 
L 3578 4134 
L 1259 4134 
L 1259 2753 
L 3481 2753 
L 3481 2222 
L 1259 2222 
L 1259 531 
L 3634 531 
L 3634 0 
L 628 0 
L 628 4666 
z
" transform="scale(0.015625)"/>
      <path id="DejaVuSans-6e" d="M 3513 2113 
L 3513 0 
L 2938 0 
L 2938 2094 
Q 2938 2591 2744 2837 
Q 2550 3084 2163 3084 
Q 1697 3084 1428 2787 
Q 1159 2491 1159 1978 
L 1159 0 
L 581 0 
L 581 3500 
L 1159 3500 
L 1159 2956 
Q 1366 3272 1645 3428 
Q 1925 3584 2291 3584 
Q 2894 3584 3203 3211 
Q 3513 2838 3513 2113 
z
" transform="scale(0.015625)"/>
      <path id="DejaVuSans-76" d="M 191 3500 
L 800 3500 
L 1894 563 
L 2988 3500 
L 3597 3500 
L 2284 0 
L 1503 0 
L 191 3500 
z
" transform="scale(0.015625)"/>
      <path id="DejaVuSans-69" d="M 603 3500 
L 1178 3500 
L 1178 0 
L 603 0 
L 603 3500 
z
M 603 4863 
L 1178 4863 
L 1178 4134 
L 603 4134 
L 603 4863 
z
" transform="scale(0.015625)"/>
      <path id="DejaVuSans-72" d="M 2631 2963 
Q 2534 3019 2420 3045 
Q 2306 3072 2169 3072 
Q 1681 3072 1420 2755 
Q 1159 2438 1159 1844 
L 1159 0 
L 581 0 
L 581 3500 
L 1159 3500 
L 1159 2956 
Q 1341 3275 1631 3429 
Q 1922 3584 2338 3584 
Q 2397 3584 2469 3576 
Q 2541 3569 2628 3553 
L 2631 2963 
z
" transform="scale(0.015625)"/>
      <path id="DejaVuSans-6f" d="M 1959 3097 
Q 1497 3097 1228 2736 
Q 959 2375 959 1747 
Q 959 1119 1226 758 
Q 1494 397 1959 397 
Q 2419 397 2687 759 
Q 2956 1122 2956 1747 
Q 2956 2369 2687 2733 
Q 2419 3097 1959 3097 
z
M 1959 3584 
Q 2709 3584 3137 3096 
Q 3566 2609 3566 1747 
Q 3566 888 3137 398 
Q 2709 -91 1959 -91 
Q 1206 -91 779 398 
Q 353 888 353 1747 
Q 353 2609 779 3096 
Q 1206 3584 1959 3584 
z
" transform="scale(0.015625)"/>
      <path id="DejaVuSans-6d" d="M 3328 2828 
Q 3544 3216 3844 3400 
Q 4144 3584 4550 3584 
Q 5097 3584 5394 3201 
Q 5691 2819 5691 2113 
L 5691 0 
L 5113 0 
L 5113 2094 
Q 5113 2597 4934 2840 
Q 4756 3084 4391 3084 
Q 3944 3084 3684 2787 
Q 3425 2491 3425 1978 
L 3425 0 
L 2847 0 
L 2847 2094 
Q 2847 2600 2669 2842 
Q 2491 3084 2119 3084 
Q 1678 3084 1418 2786 
Q 1159 2488 1159 1978 
L 1159 0 
L 581 0 
L 581 3500 
L 1159 3500 
L 1159 2956 
Q 1356 3278 1631 3431 
Q 1906 3584 2284 3584 
Q 2666 3584 2933 3390 
Q 3200 3197 3328 2828 
z
" transform="scale(0.015625)"/>
      <path id="DejaVuSans-65" d="M 3597 1894 
L 3597 1613 
L 953 1613 
Q 991 1019 1311 708 
Q 1631 397 2203 397 
Q 2534 397 2845 478 
Q 3156 559 3463 722 
L 3463 178 
Q 3153 47 2828 -22 
Q 2503 -91 2169 -91 
Q 1331 -91 842 396 
Q 353 884 353 1716 
Q 353 2575 817 3079 
Q 1281 3584 2069 3584 
Q 2775 3584 3186 3129 
Q 3597 2675 3597 1894 
z
M 3022 2063 
Q 3016 2534 2758 2815 
Q 2500 3097 2075 3097 
Q 1594 3097 1305 2825 
Q 1016 2553 972 2059 
L 3022 2063 
z
" transform="scale(0.015625)"/>
      <path id="DejaVuSans-74" d="M 1172 4494 
L 1172 3500 
L 2356 3500 
L 2356 3053 
L 1172 3053 
L 1172 1153 
Q 1172 725 1289 603 
Q 1406 481 1766 481 
L 2356 481 
L 2356 0 
L 1766 0 
Q 1100 0 847 248 
Q 594 497 594 1153 
L 594 3053 
L 172 3053 
L 172 3500 
L 594 3500 
L 594 4494 
L 1172 4494 
z
" transform="scale(0.015625)"/>
      <path id="DejaVuSans-20" transform="scale(0.015625)"/>
      <path id="DejaVuSans-53" d="M 3425 4513 
L 3425 3897 
Q 3066 4069 2747 4153 
Q 2428 4238 2131 4238 
Q 1616 4238 1336 4038 
Q 1056 3838 1056 3469 
Q 1056 3159 1242 3001 
Q 1428 2844 1947 2747 
L 2328 2669 
Q 3034 2534 3370 2195 
Q 3706 1856 3706 1288 
Q 3706 609 3251 259 
Q 2797 -91 1919 -91 
Q 1588 -91 1214 -16 
Q 841 59 441 206 
L 441 856 
Q 825 641 1194 531 
Q 1563 422 1919 422 
Q 2459 422 2753 634 
Q 3047 847 3047 1241 
Q 3047 1584 2836 1778 
Q 2625 1972 2144 2069 
L 1759 2144 
Q 1053 2284 737 2584 
Q 422 2884 422 3419 
Q 422 4038 858 4394 
Q 1294 4750 2059 4750 
Q 2388 4750 2728 4690 
Q 3069 4631 3425 4513 
z
" transform="scale(0.015625)"/>
      <path id="DejaVuSans-61" d="M 2194 1759 
Q 1497 1759 1228 1600 
Q 959 1441 959 1056 
Q 959 750 1161 570 
Q 1363 391 1709 391 
Q 2188 391 2477 730 
Q 2766 1069 2766 1631 
L 2766 1759 
L 2194 1759 
z
M 3341 1997 
L 3341 0 
L 2766 0 
L 2766 531 
Q 2569 213 2275 61 
Q 1981 -91 1556 -91 
Q 1019 -91 701 211 
Q 384 513 384 1019 
Q 384 1609 779 1909 
Q 1175 2209 1959 2209 
L 2766 2209 
L 2766 2266 
Q 2766 2663 2505 2880 
Q 2244 3097 1772 3097 
Q 1472 3097 1187 3025 
Q 903 2953 641 2809 
L 641 3341 
Q 956 3463 1253 3523 
Q 1550 3584 1831 3584 
Q 2591 3584 2966 3190 
Q 3341 2797 3341 1997 
z
" transform="scale(0.015625)"/>
      <path id="DejaVuSans-73" d="M 2834 3397 
L 2834 2853 
Q 2591 2978 2328 3040 
Q 2066 3103 1784 3103 
Q 1356 3103 1142 2972 
Q 928 2841 928 2578 
Q 928 2378 1081 2264 
Q 1234 2150 1697 2047 
L 1894 2003 
Q 2506 1872 2764 1633 
Q 3022 1394 3022 966 
Q 3022 478 2636 193 
Q 2250 -91 1575 -91 
Q 1294 -91 989 -36 
Q 684 19 347 128 
L 347 722 
Q 666 556 975 473 
Q 1284 391 1588 391 
Q 1994 391 2212 530 
Q 2431 669 2431 922 
Q 2431 1156 2273 1281 
Q 2116 1406 1581 1522 
L 1381 1569 
Q 847 1681 609 1914 
Q 372 2147 372 2553 
Q 372 3047 722 3315 
Q 1072 3584 1716 3584 
Q 2034 3584 2315 3537 
Q 2597 3491 2834 3397 
z
" transform="scale(0.015625)"/>
      <path id="DejaVuSans-63" d="M 3122 3366 
L 3122 2828 
Q 2878 2963 2633 3030 
Q 2388 3097 2138 3097 
Q 1578 3097 1268 2742 
Q 959 2388 959 1747 
Q 959 1106 1268 751 
Q 1578 397 2138 397 
Q 2388 397 2633 464 
Q 2878 531 3122 666 
L 3122 134 
Q 2881 22 2623 -34 
Q 2366 -91 2075 -91 
Q 1284 -91 818 406 
Q 353 903 353 1747 
Q 353 2603 823 3093 
Q 1294 3584 2113 3584 
Q 2378 3584 2631 3529 
Q 2884 3475 3122 3366 
z
" transform="scale(0.015625)"/>
      <path id="DejaVuSans-3a" d="M 750 794 
L 1409 794 
L 1409 0 
L 750 0 
L 750 794 
z
M 750 3309 
L 1409 3309 
L 1409 2516 
L 750 2516 
L 750 3309 
z
" transform="scale(0.015625)"/>
     </defs>
     <use xlink:href="#DejaVuSans-45"/>
     <use xlink:href="#DejaVuSans-6e" x="63.183594"/>
     <use xlink:href="#DejaVuSans-76" x="126.5625"/>
     <use xlink:href="#DejaVuSans-69" x="185.742188"/>
     <use xlink:href="#DejaVuSans-72" x="213.525391"/>
     <use xlink:href="#DejaVuSans-6f" x="252.388672"/>
     <use xlink:href="#DejaVuSans-6e" x="313.570312"/>
     <use xlink:href="#DejaVuSans-6d" x="376.949219"/>
     <use xlink:href="#DejaVuSans-65" x="474.361328"/>
     <use xlink:href="#DejaVuSans-6e" x="535.884766"/>
     <use xlink:href="#DejaVuSans-74" x="599.263672"/>
     <use xlink:href="#DejaVuSans-20" x="638.472656"/>
     <use xlink:href="#DejaVuSans-53" x="670.259766"/>
     <use xlink:href="#DejaVuSans-74" x="733.736328"/>
     <use xlink:href="#DejaVuSans-61" x="772.945312"/>
     <use xlink:href="#DejaVuSans-74" x="834.224609"/>
     <use xlink:href="#DejaVuSans-69" x="873.433594"/>
     <use xlink:href="#DejaVuSans-73" x="901.216797"/>
     <use xlink:href="#DejaVuSans-74" x="953.316406"/>
     <use xlink:href="#DejaVuSans-69" x="992.525391"/>
     <use xlink:href="#DejaVuSans-63" x="1020.308594"/>
     <use xlink:href="#DejaVuSans-73" x="1075.289062"/>
     <use xlink:href="#DejaVuSans-3a" x="1127.388672"/>
    </g>
    <!-- • 4 Rooms -->
    <g transform="translate(1027.05993 801.268528)scale(0.095 -0.095)">
     <defs>
      <path id="DejaVuSans-2022" d="M 959 2381 
Q 959 2769 1229 3036 
Q 1500 3303 1894 3303 
Q 2281 3303 2548 3036 
Q 2816 2769 2816 2381 
Q 2816 1991 2547 1722 
Q 2278 1453 1888 1453 
Q 1497 1453 1228 1722 
Q 959 1991 959 2381 
z
" transform="scale(0.015625)"/>
      <path id="DejaVuSans-34" d="M 2419 4116 
L 825 1625 
L 2419 1625 
L 2419 4116 
z
M 2253 4666 
L 3047 4666 
L 3047 1625 
L 3713 1625 
L 3713 1100 
L 3047 1100 
L 3047 0 
L 2419 0 
L 2419 1100 
L 313 1100 
L 313 1709 
L 2253 4666 
z
" transform="scale(0.015625)"/>
      <path id="DejaVuSans-52" d="M 2841 2188 
Q 3044 2119 3236 1894 
Q 3428 1669 3622 1275 
L 4263 0 
L 3584 0 
L 2988 1197 
Q 2756 1666 2539 1819 
Q 2322 1972 1947 1972 
L 1259 1972 
L 1259 0 
L 628 0 
L 628 4666 
L 2053 4666 
Q 2853 4666 3247 4331 
Q 3641 3997 3641 3322 
Q 3641 2881 3436 2590 
Q 3231 2300 2841 2188 
z
M 1259 4147 
L 1259 2491 
L 2053 2491 
Q 2509 2491 2742 2702 
Q 2975 2913 2975 3322 
Q 2975 3731 2742 3939 
Q 2509 4147 2053 4147 
L 1259 4147 
z
" transform="scale(0.015625)"/>
     </defs>
     <use xlink:href="#DejaVuSans-2022"/>
     <use xlink:href="#DejaVuSans-20" x="58.984375"/>
     <use xlink:href="#DejaVuSans-34" x="90.771484"/>
     <use xlink:href="#DejaVuSans-20" x="154.394531"/>
     <use xlink:href="#DejaVuSans-52" x="186.181641"/>
     <use xlink:href="#DejaVuSans-6f" x="251.164062"/>
     <use xlink:href="#DejaVuSans-6f" x="312.345703"/>
     <use xlink:href="#DejaVuSans-6d" x="373.527344"/>
     <use xlink:href="#DejaVuSans-73" x="470.939453"/>
    </g>
    <!-- • 7 Objects -->
    <g transform="translate(1027.05993 811.90645)scale(0.095 -0.095)">
     <defs>
      <path id="DejaVuSans-37" d="M 525 4666 
L 3525 4666 
L 3525 4397 
L 1831 0 
L 1172 0 
L 2766 4134 
L 525 4134 
L 525 4666 
z
" transform="scale(0.015625)"/>
      <path id="DejaVuSans-4f" d="M 2522 4238 
Q 1834 4238 1429 3725 
Q 1025 3213 1025 2328 
Q 1025 1447 1429 934 
Q 1834 422 2522 422 
Q 3209 422 3611 934 
Q 4013 1447 4013 2328 
Q 4013 3213 3611 3725 
Q 3209 4238 2522 4238 
z
M 2522 4750 
Q 3503 4750 4090 4092 
Q 4678 3434 4678 2328 
Q 4678 1225 4090 567 
Q 3503 -91 2522 -91 
Q 1538 -91 948 565 
Q 359 1222 359 2328 
Q 359 3434 948 4092 
Q 1538 4750 2522 4750 
z
" transform="scale(0.015625)"/>
      <path id="DejaVuSans-62" d="M 3116 1747 
Q 3116 2381 2855 2742 
Q 2594 3103 2138 3103 
Q 1681 3103 1420 2742 
Q 1159 2381 1159 1747 
Q 1159 1113 1420 752 
Q 1681 391 2138 391 
Q 2594 391 2855 752 
Q 3116 1113 3116 1747 
z
M 1159 2969 
Q 1341 3281 1617 3432 
Q 1894 3584 2278 3584 
Q 2916 3584 3314 3078 
Q 3713 2572 3713 1747 
Q 3713 922 3314 415 
Q 2916 -91 2278 -91 
Q 1894 -91 1617 61 
Q 1341 213 1159 525 
L 1159 0 
L 581 0 
L 581 4863 
L 1159 4863 
L 1159 2969 
z
" transform="scale(0.015625)"/>
      <path id="DejaVuSans-6a" d="M 603 3500 
L 1178 3500 
L 1178 -63 
Q 1178 -731 923 -1031 
Q 669 -1331 103 -1331 
L -116 -1331 
L -116 -844 
L 38 -844 
Q 366 -844 484 -692 
Q 603 -541 603 -63 
L 603 3500 
z
M 603 4863 
L 1178 4863 
L 1178 4134 
L 603 4134 
L 603 4863 
z
" transform="scale(0.015625)"/>
     </defs>
     <use xlink:href="#DejaVuSans-2022"/>
     <use xlink:href="#DejaVuSans-20" x="58.984375"/>
     <use xlink:href="#DejaVuSans-37" x="90.771484"/>
     <use xlink:href="#DejaVuSans-20" x="154.394531"/>
     <use xlink:href="#DejaVuSans-4f" x="186.181641"/>
     <use xlink:href="#DejaVuSans-62" x="264.892578"/>
     <use xlink:href="#DejaVuSans-6a" x="328.369141"/>
     <use xlink:href="#DejaVuSans-65" x="356.152344"/>
     <use xlink:href="#DejaVuSans-63" x="417.675781"/>
     <use xlink:href="#DejaVuSans-74" x="472.65625"/>
     <use xlink:href="#DejaVuSans-73" x="511.865234"/>
    </g>
    <!-- • 6 Connections -->
    <g transform="translate(1027.05993 822.544372)scale(0.095 -0.095)">
     <defs>
      <path id="DejaVuSans-36" d="M 2113 2584 
Q 1688 2584 1439 2293 
Q 1191 2003 1191 1497 
Q 1191 994 1439 701 
Q 1688 409 2113 409 
Q 2538 409 2786 701 
Q 3034 994 3034 1497 
Q 3034 2003 2786 2293 
Q 2538 2584 2113 2584 
z
M 3366 4563 
L 3366 3988 
Q 3128 4100 2886 4159 
Q 2644 4219 2406 4219 
Q 1781 4219 1451 3797 
Q 1122 3375 1075 2522 
Q 1259 2794 1537 2939 
Q 1816 3084 2150 3084 
Q 2853 3084 3261 2657 
Q 3669 2231 3669 1497 
Q 3669 778 3244 343 
Q 2819 -91 2113 -91 
Q 1303 -91 875 529 
Q 447 1150 447 2328 
Q 447 3434 972 4092 
Q 1497 4750 2381 4750 
Q 2619 4750 2861 4703 
Q 3103 4656 3366 4563 
z
" transform="scale(0.015625)"/>
      <path id="DejaVuSans-43" d="M 4122 4306 
L 4122 3641 
Q 3803 3938 3442 4084 
Q 3081 4231 2675 4231 
Q 1875 4231 1450 3742 
Q 1025 3253 1025 2328 
Q 1025 1406 1450 917 
Q 1875 428 2675 428 
Q 3081 428 3442 575 
Q 3803 722 4122 1019 
L 4122 359 
Q 3791 134 3420 21 
Q 3050 -91 2638 -91 
Q 1578 -91 968 557 
Q 359 1206 359 2328 
Q 359 3453 968 4101 
Q 1578 4750 2638 4750 
Q 3056 4750 3426 4639 
Q 3797 4528 4122 4306 
z
" transform="scale(0.015625)"/>
     </defs>
     <use xlink:href="#DejaVuSans-2022"/>
     <use xlink:href="#DejaVuSans-20" x="58.984375"/>
     <use xlink:href="#DejaVuSans-36" x="90.771484"/>
     <use xlink:href="#DejaVuSans-20" x="154.394531"/>
     <use xlink:href="#DejaVuSans-43" x="186.181641"/>
     <use xlink:href="#DejaVuSans-6f" x="256.005859"/>
     <use xlink:href="#DejaVuSans-6e" x="317.1875"/>
     <use xlink:href="#DejaVuSans-6e" x="380.566406"/>
     <use xlink:href="#DejaVuSans-65" x="443.945312"/>
     <use xlink:href="#DejaVuSans-63" x="505.46875"/>
     <use xlink:href="#DejaVuSans-74" x="560.449219"/>
     <use xlink:href="#DejaVuSans-69" x="599.658203"/>
     <use xlink:href="#DejaVuSans-6f" x="627.441406"/>
     <use xlink:href="#DejaVuSans-6e" x="688.623047"/>
     <use xlink:href="#DejaVuSans-73" x="752.001953"/>
    </g>
   </g>
   <g id="text_2">
    <!-- Topological Graph - Home Environment -->
    <g transform="translate(294.608625 22.396875)scale(0.2 -0.2)">
     <defs>
      <path id="DejaVuSans-Bold-54" d="M 31 4666 
L 4331 4666 
L 4331 3756 
L 2784 3756 
L 2784 0 
L 1581 0 
L 1581 3756 
L 31 3756 
L 31 4666 
z
" transform="scale(0.015625)"/>
      <path id="DejaVuSans-Bold-6f" d="M 2203 2784 
Q 1831 2784 1636 2517 
Q 1441 2250 1441 1747 
Q 1441 1244 1636 976 
Q 1831 709 2203 709 
Q 2569 709 2762 976 
Q 2956 1244 2956 1747 
Q 2956 2250 2762 2517 
Q 2569 2784 2203 2784 
z
M 2203 3584 
Q 3106 3584 3614 3096 
Q 4122 2609 4122 1747 
Q 4122 884 3614 396 
Q 3106 -91 2203 -91 
Q 1297 -91 786 396 
Q 275 884 275 1747 
Q 275 2609 786 3096 
Q 1297 3584 2203 3584 
z
" transform="scale(0.015625)"/>
      <path id="DejaVuSans-Bold-70" d="M 1656 506 
L 1656 -1331 
L 538 -1331 
L 538 3500 
L 1656 3500 
L 1656 2988 
Q 1888 3294 2169 3439 
Q 2450 3584 2816 3584 
Q 3463 3584 3878 3070 
Q 4294 2556 4294 1747 
Q 4294 938 3878 423 
Q 3463 -91 2816 -91 
Q 2450 -91 2169 54 
Q 1888 200 1656 506 
z
M 2400 2772 
Q 2041 2772 1848 2508 
Q 1656 2244 1656 1747 
Q 1656 1250 1848 986 
Q 2041 722 2400 722 
Q 2759 722 2948 984 
Q 3138 1247 3138 1747 
Q 3138 2247 2948 2509 
Q 2759 2772 2400 2772 
z
" transform="scale(0.015625)"/>
      <path id="DejaVuSans-Bold-6c" d="M 538 4863 
L 1656 4863 
L 1656 0 
L 538 0 
L 538 4863 
z
" transform="scale(0.015625)"/>
      <path id="DejaVuSans-Bold-67" d="M 2919 594 
Q 2688 288 2409 144 
Q 2131 0 1766 0 
Q 1125 0 706 504 
Q 288 1009 288 1791 
Q 288 2575 706 3076 
Q 1125 3578 1766 3578 
Q 2131 3578 2409 3434 
Q 2688 3291 2919 2981 
L 2919 3500 
L 4044 3500 
L 4044 353 
Q 4044 -491 3511 -936 
Q 2978 -1381 1966 -1381 
Q 1638 -1381 1331 -1331 
Q 1025 -1281 716 -1178 
L 716 -306 
Q 1009 -475 1290 -558 
Q 1572 -641 1856 -641 
Q 2406 -641 2662 -400 
Q 2919 -159 2919 353 
L 2919 594 
z
M 2181 2772 
Q 1834 2772 1640 2515 
Q 1447 2259 1447 1791 
Q 1447 1309 1634 1061 
Q 1822 813 2181 813 
Q 2531 813 2725 1069 
Q 2919 1325 2919 1791 
Q 2919 2259 2725 2515 
Q 2531 2772 2181 2772 
z
" transform="scale(0.015625)"/>
      <path id="DejaVuSans-Bold-69" d="M 538 3500 
L 1656 3500 
L 1656 0 
L 538 0 
L 538 3500 
z
M 538 4863 
L 1656 4863 
L 1656 3950 
L 538 3950 
L 538 4863 
z
" transform="scale(0.015625)"/>
      <path id="DejaVuSans-Bold-63" d="M 3366 3391 
L 3366 2478 
Q 3138 2634 2908 2709 
Q 2678 2784 2431 2784 
Q 1963 2784 1702 2511 
Q 1441 2238 1441 1747 
Q 1441 1256 1702 982 
Q 1963 709 2431 709 
Q 2694 709 2930 787 
Q 3166 866 3366 1019 
L 3366 103 
Q 3103 6 2833 -42 
Q 2563 -91 2291 -91 
Q 1344 -91 809 395 
Q 275 881 275 1747 
Q 275 2613 809 3098 
Q 1344 3584 2291 3584 
Q 2566 3584 2833 3536 
Q 3100 3488 3366 3391 
z
" transform="scale(0.015625)"/>
      <path id="DejaVuSans-Bold-61" d="M 2106 1575 
Q 1756 1575 1579 1456 
Q 1403 1338 1403 1106 
Q 1403 894 1545 773 
Q 1688 653 1941 653 
Q 2256 653 2472 879 
Q 2688 1106 2688 1447 
L 2688 1575 
L 2106 1575 
z
M 3816 1997 
L 3816 0 
L 2688 0 
L 2688 519 
Q 2463 200 2181 54 
Q 1900 -91 1497 -91 
Q 953 -91 614 226 
Q 275 544 275 1050 
Q 275 1666 698 1953 
Q 1122 2241 2028 2241 
L 2688 2241 
L 2688 2328 
Q 2688 2594 2478 2717 
Q 2269 2841 1825 2841 
Q 1466 2841 1156 2769 
Q 847 2697 581 2553 
L 581 3406 
Q 941 3494 1303 3539 
Q 1666 3584 2028 3584 
Q 2975 3584 3395 3211 
Q 3816 2838 3816 1997 
z
" transform="scale(0.015625)"/>
      <path id="DejaVuSans-Bold-20" transform="scale(0.015625)"/>
      <path id="DejaVuSans-Bold-47" d="M 4781 347 
Q 4331 128 3847 18 
Q 3363 -91 2847 -91 
Q 1681 -91 1000 561 
Q 319 1213 319 2328 
Q 319 3456 1012 4103 
Q 1706 4750 2913 4750 
Q 3378 4750 3804 4662 
Q 4231 4575 4609 4403 
L 4609 3438 
Q 4219 3659 3833 3768 
Q 3447 3878 3059 3878 
Q 2341 3878 1952 3476 
Q 1563 3075 1563 2328 
Q 1563 1588 1938 1184 
Q 2313 781 3003 781 
Q 3191 781 3352 804 
Q 3513 828 3641 878 
L 3641 1784 
L 2906 1784 
L 2906 2591 
L 4781 2591 
L 4781 347 
z
" transform="scale(0.015625)"/>
      <path id="DejaVuSans-Bold-72" d="M 3138 2547 
Q 2991 2616 2845 2648 
Q 2700 2681 2553 2681 
Q 2122 2681 1889 2404 
Q 1656 2128 1656 1613 
L 1656 0 
L 538 0 
L 538 3500 
L 1656 3500 
L 1656 2925 
Q 1872 3269 2151 3426 
Q 2431 3584 2822 3584 
Q 2878 3584 2943 3579 
Q 3009 3575 3134 3559 
L 3138 2547 
z
" transform="scale(0.015625)"/>
      <path id="DejaVuSans-Bold-68" d="M 4056 2131 
L 4056 0 
L 2931 0 
L 2931 347 
L 2931 1625 
Q 2931 2084 2911 2256 
Q 2891 2428 2841 2509 
Q 2775 2619 2662 2680 
Q 2550 2741 2406 2741 
Q 2056 2741 1856 2470 
Q 1656 2200 1656 1722 
L 1656 0 
L 538 0 
L 538 4863 
L 1656 4863 
L 1656 2988 
Q 1909 3294 2193 3439 
Q 2478 3584 2822 3584 
Q 3428 3584 3742 3212 
Q 4056 2841 4056 2131 
z
" transform="scale(0.015625)"/>
      <path id="DejaVuSans-Bold-2d" d="M 347 2297 
L 2309 2297 
L 2309 1388 
L 347 1388 
L 347 2297 
z
" transform="scale(0.015625)"/>
      <path id="DejaVuSans-Bold-48" d="M 588 4666 
L 1791 4666 
L 1791 2888 
L 3566 2888 
L 3566 4666 
L 4769 4666 
L 4769 0 
L 3566 0 
L 3566 1978 
L 1791 1978 
L 1791 0 
L 588 0 
L 588 4666 
z
" transform="scale(0.015625)"/>
      <path id="DejaVuSans-Bold-6d" d="M 3781 2919 
Q 3994 3244 4286 3414 
Q 4578 3584 4928 3584 
Q 5531 3584 5847 3212 
Q 6163 2841 6163 2131 
L 6163 0 
L 5038 0 
L 5038 1825 
Q 5041 1866 5042 1909 
Q 5044 1953 5044 2034 
Q 5044 2406 4934 2573 
Q 4825 2741 4581 2741 
Q 4263 2741 4089 2478 
Q 3916 2216 3909 1719 
L 3909 0 
L 2784 0 
L 2784 1825 
Q 2784 2406 2684 2573 
Q 2584 2741 2328 2741 
Q 2006 2741 1831 2477 
Q 1656 2213 1656 1722 
L 1656 0 
L 531 0 
L 531 3500 
L 1656 3500 
L 1656 2988 
Q 1863 3284 2130 3434 
Q 2397 3584 2719 3584 
Q 3081 3584 3359 3409 
Q 3638 3234 3781 2919 
z
" transform="scale(0.015625)"/>
      <path id="DejaVuSans-Bold-65" d="M 4031 1759 
L 4031 1441 
L 1416 1441 
Q 1456 1047 1700 850 
Q 1944 653 2381 653 
Q 2734 653 3104 758 
Q 3475 863 3866 1075 
L 3866 213 
Q 3469 63 3072 -14 
Q 2675 -91 2278 -91 
Q 1328 -91 801 392 
Q 275 875 275 1747 
Q 275 2603 792 3093 
Q 1309 3584 2216 3584 
Q 3041 3584 3536 3087 
Q 4031 2591 4031 1759 
z
M 2881 2131 
Q 2881 2450 2695 2645 
Q 2509 2841 2209 2841 
Q 1884 2841 1681 2658 
Q 1478 2475 1428 2131 
L 2881 2131 
z
" transform="scale(0.015625)"/>
      <path id="DejaVuSans-Bold-45" d="M 588 4666 
L 3834 4666 
L 3834 3756 
L 1791 3756 
L 1791 2888 
L 3713 2888 
L 3713 1978 
L 1791 1978 
L 1791 909 
L 3903 909 
L 3903 0 
L 588 0 
L 588 4666 
z
" transform="scale(0.015625)"/>
      <path id="DejaVuSans-Bold-6e" d="M 4056 2131 
L 4056 0 
L 2931 0 
L 2931 347 
L 2931 1631 
Q 2931 2084 2911 2256 
Q 2891 2428 2841 2509 
Q 2775 2619 2662 2680 
Q 2550 2741 2406 2741 
Q 2056 2741 1856 2470 
Q 1656 2200 1656 1722 
L 1656 0 
L 538 0 
L 538 3500 
L 1656 3500 
L 1656 2988 
Q 1909 3294 2193 3439 
Q 2478 3584 2822 3584 
Q 3428 3584 3742 3212 
Q 4056 2841 4056 2131 
z
" transform="scale(0.015625)"/>
      <path id="DejaVuSans-Bold-76" d="M 97 3500 
L 1216 3500 
L 2088 1081 
L 2956 3500 
L 4078 3500 
L 2700 0 
L 1472 0 
L 97 3500 
z
" transform="scale(0.015625)"/>
      <path id="DejaVuSans-Bold-74" d="M 1759 4494 
L 1759 3500 
L 2913 3500 
L 2913 2700 
L 1759 2700 
L 1759 1216 
Q 1759 972 1856 886 
Q 1953 800 2241 800 
L 2816 800 
L 2816 0 
L 1856 0 
Q 1194 0 917 276 
Q 641 553 641 1216 
L 641 2700 
L 84 2700 
L 84 3500 
L 641 3500 
L 641 4494 
L 1759 4494 
z
" transform="scale(0.015625)"/>
     </defs>
     <use xlink:href="#DejaVuSans-Bold-54"/>
     <use xlink:href="#DejaVuSans-Bold-6f" x="54.962891"/>
     <use xlink:href="#DejaVuSans-Bold-70" x="123.664062"/>
     <use xlink:href="#DejaVuSans-Bold-6f" x="195.246094"/>
     <use xlink:href="#DejaVuSans-Bold-6c" x="263.947266"/>
     <use xlink:href="#DejaVuSans-Bold-6f" x="298.224609"/>
     <use xlink:href="#DejaVuSans-Bold-67" x="366.925781"/>
     <use xlink:href="#DejaVuSans-Bold-69" x="438.507812"/>
     <use xlink:href="#DejaVuSans-Bold-63" x="472.785156"/>
     <use xlink:href="#DejaVuSans-Bold-61" x="532.0625"/>
     <use xlink:href="#DejaVuSans-Bold-6c" x="599.542969"/>
     <use xlink:href="#DejaVuSans-Bold-20" x="633.820312"/>
     <use xlink:href="#DejaVuSans-Bold-47" x="668.634766"/>
     <use xlink:href="#DejaVuSans-Bold-72" x="750.714844"/>
     <use xlink:href="#DejaVuSans-Bold-61" x="800.03125"/>
     <use xlink:href="#DejaVuSans-Bold-70" x="867.511719"/>
     <use xlink:href="#DejaVuSans-Bold-68" x="939.09375"/>
     <use xlink:href="#DejaVuSans-Bold-20" x="1010.285156"/>
     <use xlink:href="#DejaVuSans-Bold-2d" x="1045.099609"/>
     <use xlink:href="#DejaVuSans-Bold-20" x="1086.603516"/>
     <use xlink:href="#DejaVuSans-Bold-48" x="1121.417969"/>
     <use xlink:href="#DejaVuSans-Bold-6f" x="1205.109375"/>
     <use xlink:href="#DejaVuSans-Bold-6d" x="1273.810547"/>
     <use xlink:href="#DejaVuSans-Bold-65" x="1378.009766"/>
     <use xlink:href="#DejaVuSans-Bold-20" x="1445.832031"/>
     <use xlink:href="#DejaVuSans-Bold-45" x="1480.646484"/>
     <use xlink:href="#DejaVuSans-Bold-6e" x="1548.957031"/>
     <use xlink:href="#DejaVuSans-Bold-76" x="1620.148438"/>
     <use xlink:href="#DejaVuSans-Bold-69" x="1685.333984"/>
     <use xlink:href="#DejaVuSans-Bold-72" x="1719.611328"/>
     <use xlink:href="#DejaVuSans-Bold-6f" x="1768.927734"/>
     <use xlink:href="#DejaVuSans-Bold-6e" x="1837.628906"/>
     <use xlink:href="#DejaVuSans-Bold-6d" x="1908.820312"/>
     <use xlink:href="#DejaVuSans-Bold-65" x="2013.019531"/>
     <use xlink:href="#DejaVuSans-Bold-6e" x="2080.841797"/>
     <use xlink:href="#DejaVuSans-Bold-74" x="2152.033203"/>
    </g>
   </g>
   <g id="legend_1">
    <g id="patch_3">
     <path d="M 879.653812 844.456875 
L 1015.686 844.456875 
Q 1017.486 844.456875 1017.486 842.656875 
L 1017.486 773.905313 
Q 1017.486 772.105313 1015.686 772.105313 
L 879.653812 772.105313 
Q 877.853813 772.105313 877.853813 773.905313 
L 877.853813 842.656875 
Q 877.853813 844.456875 879.653812 844.456875 
z
" style="fill: #ffffff; opacity: 0.9; stroke: #90a4ae; stroke-linejoin: miter"/>
    </g>
    <g id="patch_4">
     <path d="M 883.253812 784.343906 
L 901.253812 784.343906 
L 901.253812 778.043906 
L 883.253812 778.043906 
z
" style="fill: #7dc4ff; stroke: #455a64; stroke-linejoin: miter"/>
    </g>
    <g id="text_3">
     <!-- Rooms -->
     <g transform="translate(908.453813 784.343906)scale(0.09 -0.09)">
      <use xlink:href="#DejaVuSans-52"/>
      <use xlink:href="#DejaVuSans-6f" x="64.982422"/>
      <use xlink:href="#DejaVuSans-6f" x="126.164062"/>
      <use xlink:href="#DejaVuSans-6d" x="187.345703"/>
      <use xlink:href="#DejaVuSans-73" x="284.757812"/>
     </g>
    </g>
    <g id="patch_5">
     <path d="M 883.253812 797.554219 
L 901.253812 797.554219 
L 901.253812 791.254219 
L 883.253812 791.254219 
z
" style="fill: #ff6b6b; stroke: #c62828; stroke-linejoin: miter"/>
    </g>
    <g id="text_4">
     <!-- Objects/Features -->
     <g transform="translate(908.453813 797.554219)scale(0.09 -0.09)">
      <defs>
       <path id="DejaVuSans-2f" d="M 1625 4666 
L 2156 4666 
L 531 -594 
L 0 -594 
L 1625 4666 
z
" transform="scale(0.015625)"/>
       <path id="DejaVuSans-46" d="M 628 4666 
L 3309 4666 
L 3309 4134 
L 1259 4134 
L 1259 2759 
L 3109 2759 
L 3109 2228 
L 1259 2228 
L 1259 0 
L 628 0 
L 628 4666 
z
" transform="scale(0.015625)"/>
       <path id="DejaVuSans-75" d="M 544 1381 
L 544 3500 
L 1119 3500 
L 1119 1403 
Q 1119 906 1312 657 
Q 1506 409 1894 409 
Q 2359 409 2629 706 
Q 2900 1003 2900 1516 
L 2900 3500 
L 3475 3500 
L 3475 0 
L 2900 0 
L 2900 538 
Q 2691 219 2414 64 
Q 2138 -91 1772 -91 
Q 1169 -91 856 284 
Q 544 659 544 1381 
z
M 1991 3584 
L 1991 3584 
z
" transform="scale(0.015625)"/>
      </defs>
      <use xlink:href="#DejaVuSans-4f"/>
      <use xlink:href="#DejaVuSans-62" x="78.710938"/>
      <use xlink:href="#DejaVuSans-6a" x="142.1875"/>
      <use xlink:href="#DejaVuSans-65" x="169.970703"/>
      <use xlink:href="#DejaVuSans-63" x="231.494141"/>
      <use xlink:href="#DejaVuSans-74" x="286.474609"/>
      <use xlink:href="#DejaVuSans-73" x="325.683594"/>
      <use xlink:href="#DejaVuSans-2f" x="377.783203"/>
      <use xlink:href="#DejaVuSans-46" x="411.474609"/>
      <use xlink:href="#DejaVuSans-65" x="463.494141"/>
      <use xlink:href="#DejaVuSans-61" x="525.017578"/>
      <use xlink:href="#DejaVuSans-74" x="586.296875"/>
      <use xlink:href="#DejaVuSans-75" x="625.505859"/>
      <use xlink:href="#DejaVuSans-72" x="688.884766"/>
      <use xlink:href="#DejaVuSans-65" x="727.748047"/>
      <use xlink:href="#DejaVuSans-73" x="789.271484"/>
     </g>
    </g>
    <g id="patch_6">
     <path d="M 883.253812 810.764531 
L 901.253812 810.764531 
L 901.253812 804.464531 
L 883.253812 804.464531 
z
" style="fill: #ffa43a; stroke: #ef6c00; stroke-linejoin: miter"/>
    </g>
    <g id="text_5">
     <!-- Doors/Connections -->
     <g transform="translate(908.453813 810.764531)scale(0.09 -0.09)">
      <defs>
       <path id="DejaVuSans-44" d="M 1259 4147 
L 1259 519 
L 2022 519 
Q 2988 519 3436 956 
Q 3884 1394 3884 2338 
Q 3884 3275 3436 3711 
Q 2988 4147 2022 4147 
L 1259 4147 
z
M 628 4666 
L 1925 4666 
Q 3281 4666 3915 4102 
Q 4550 3538 4550 2338 
Q 4550 1131 3912 565 
Q 3275 0 1925 0 
L 628 0 
L 628 4666 
z
" transform="scale(0.015625)"/>
      </defs>
      <use xlink:href="#DejaVuSans-44"/>
      <use xlink:href="#DejaVuSans-6f" x="77.001953"/>
      <use xlink:href="#DejaVuSans-6f" x="138.183594"/>
      <use xlink:href="#DejaVuSans-72" x="199.365234"/>
      <use xlink:href="#DejaVuSans-73" x="240.478516"/>
      <use xlink:href="#DejaVuSans-2f" x="292.578125"/>
      <use xlink:href="#DejaVuSans-43" x="326.269531"/>
      <use xlink:href="#DejaVuSans-6f" x="396.09375"/>
      <use xlink:href="#DejaVuSans-6e" x="457.275391"/>
      <use xlink:href="#DejaVuSans-6e" x="520.654297"/>
      <use xlink:href="#DejaVuSans-65" x="584.033203"/>
      <use xlink:href="#DejaVuSans-63" x="645.556641"/>
      <use xlink:href="#DejaVuSans-74" x="700.537109"/>
      <use xlink:href="#DejaVuSans-69" x="739.746094"/>
      <use xlink:href="#DejaVuSans-6f" x="767.529297"/>
      <use xlink:href="#DejaVuSans-6e" x="828.710938"/>
      <use xlink:href="#DejaVuSans-73" x="892.089844"/>
     </g>
    </g>
    <g id="line2d_14">
     <path d="M 883.253812 820.824844 
L 892.253812 820.824844 
L 901.253812 820.824844 
" style="fill: none; stroke: #546e7a; stroke-width: 2.4; stroke-linecap: square"/>
    </g>
    <g id="text_6">
     <!-- Room Connections -->
     <g transform="translate(908.453813 823.974844)scale(0.09 -0.09)">
      <use xlink:href="#DejaVuSans-52"/>
      <use xlink:href="#DejaVuSans-6f" x="64.982422"/>
      <use xlink:href="#DejaVuSans-6f" x="126.164062"/>
      <use xlink:href="#DejaVuSans-6d" x="187.345703"/>
      <use xlink:href="#DejaVuSans-20" x="284.757812"/>
      <use xlink:href="#DejaVuSans-43" x="316.544922"/>
      <use xlink:href="#DejaVuSans-6f" x="386.369141"/>
      <use xlink:href="#DejaVuSans-6e" x="447.550781"/>
      <use xlink:href="#DejaVuSans-6e" x="510.929688"/>
      <use xlink:href="#DejaVuSans-65" x="574.308594"/>
      <use xlink:href="#DejaVuSans-63" x="635.832031"/>
      <use xlink:href="#DejaVuSans-74" x="690.8125"/>
      <use xlink:href="#DejaVuSans-69" x="730.021484"/>
      <use xlink:href="#DejaVuSans-6f" x="757.804688"/>
      <use xlink:href="#DejaVuSans-6e" x="818.986328"/>
      <use xlink:href="#DejaVuSans-73" x="882.365234"/>
     </g>
    </g>
    <g id="line2d_15">
     <path d="M 883.253812 834.035156 
L 892.253812 834.035156 
L 901.253812 834.035156 
" style="fill: none; stroke-dasharray: 2.5,3.75; stroke-dashoffset: 0; stroke: #9e9e9e; stroke-width: 1.25"/>
    </g>
    <g id="text_7">
     <!-- Object–Room Relations -->
     <g transform="translate(908.453813 837.185156)scale(0.09 -0.09)">
      <defs>
       <path id="DejaVuSans-2013" d="M 313 1978 
L 2888 1978 
L 2888 1528 
L 313 1528 
L 313 1978 
z
" transform="scale(0.015625)"/>
       <path id="DejaVuSans-6c" d="M 603 4863 
L 1178 4863 
L 1178 0 
L 603 0 
L 603 4863 
z
" transform="scale(0.015625)"/>
      </defs>
      <use xlink:href="#DejaVuSans-4f"/>
      <use xlink:href="#DejaVuSans-62" x="78.710938"/>
      <use xlink:href="#DejaVuSans-6a" x="142.1875"/>
      <use xlink:href="#DejaVuSans-65" x="169.970703"/>
      <use xlink:href="#DejaVuSans-63" x="231.494141"/>
      <use xlink:href="#DejaVuSans-74" x="286.474609"/>
      <use xlink:href="#DejaVuSans-2013" x="325.683594"/>
      <use xlink:href="#DejaVuSans-52" x="375.683594"/>
      <use xlink:href="#DejaVuSans-6f" x="440.666016"/>
      <use xlink:href="#DejaVuSans-6f" x="501.847656"/>
      <use xlink:href="#DejaVuSans-6d" x="563.029297"/>
      <use xlink:href="#DejaVuSans-20" x="660.441406"/>
      <use xlink:href="#DejaVuSans-52" x="692.228516"/>
      <use xlink:href="#DejaVuSans-65" x="757.210938"/>
      <use xlink:href="#DejaVuSans-6c" x="818.734375"/>
      <use xlink:href="#DejaVuSans-61" x="846.517578"/>
      <use xlink:href="#DejaVuSans-74" x="907.796875"/>
      <use xlink:href="#DejaVuSans-69" x="947.005859"/>
      <use xlink:href="#DejaVuSans-6f" x="974.789062"/>
      <use xlink:href="#DejaVuSans-6e" x="1035.970703"/>
      <use xlink:href="#DejaVuSans-73" x="1099.349609"/>
     </g>
    </g>
   </g>
   <g id="text_8">
    <g id="patch_7">
     <path d="M 426.102792 519.758552 
L 453.028729 519.758552 
Q 455.653729 519.758552 455.653729 517.133552 
L 455.653729 506.97152 
Q 455.653729 504.34652 453.028729 504.34652 
L 426.102792 504.34652 
Q 423.477792 504.34652 423.477792 506.97152 
L 423.477792 517.133552 
Q 423.477792 519.758552 426.102792 519.758552 
z
" style="fill: #ffffff; opacity: 0.95; stroke: #b0bec5; stroke-linejoin: miter"/>
    </g>
    <!-- 4.0m -->
    <g style="fill: #1a1a1a" transform="translate(426.102792 514.94988)scale(0.105 -0.105)">
     <defs>
      <path id="DejaVuSans-2e" d="M 684 794 
L 1344 794 
L 1344 0 
L 684 0 
L 684 794 
z
" transform="scale(0.015625)"/>
      <path id="DejaVuSans-30" d="M 2034 4250 
Q 1547 4250 1301 3770 
Q 1056 3291 1056 2328 
Q 1056 1369 1301 889 
Q 1547 409 2034 409 
Q 2525 409 2770 889 
Q 3016 1369 3016 2328 
Q 3016 3291 2770 3770 
Q 2525 4250 2034 4250 
z
M 2034 4750 
Q 2819 4750 3233 4129 
Q 3647 3509 3647 2328 
Q 3647 1150 3233 529 
Q 2819 -91 2034 -91 
Q 1250 -91 836 529 
Q 422 1150 422 2328 
Q 422 3509 836 4129 
Q 1250 4750 2034 4750 
z
" transform="scale(0.015625)"/>
     </defs>
     <use xlink:href="#DejaVuSans-34"/>
     <use xlink:href="#DejaVuSans-2e" x="63.623047"/>
     <use xlink:href="#DejaVuSans-30" x="95.410156"/>
     <use xlink:href="#DejaVuSans-6d" x="159.033203"/>
    </g>
   </g>
   <g id="text_9">
    <g id="patch_8">
     <path d="M 407.881633 610.587148 
L 434.80757 610.587148 
Q 437.43257 610.587148 437.43257 607.962148 
L 437.43257 597.800117 
Q 437.43257 595.175117 434.80757 595.175117 
L 407.881633 595.175117 
Q 405.256633 595.175117 405.256633 597.800117 
L 405.256633 607.962148 
Q 405.256633 610.587148 407.881633 610.587148 
z
" style="fill: #ffffff; opacity: 0.95; stroke: #b0bec5; stroke-linejoin: miter"/>
    </g>
    <!-- 3.5m -->
    <g style="fill: #1a1a1a" transform="translate(407.881633 605.778476)scale(0.105 -0.105)">
     <defs>
      <path id="DejaVuSans-33" d="M 2597 2516 
Q 3050 2419 3304 2112 
Q 3559 1806 3559 1356 
Q 3559 666 3084 287 
Q 2609 -91 1734 -91 
Q 1441 -91 1130 -33 
Q 819 25 488 141 
L 488 750 
Q 750 597 1062 519 
Q 1375 441 1716 441 
Q 2309 441 2620 675 
Q 2931 909 2931 1356 
Q 2931 1769 2642 2001 
Q 2353 2234 1838 2234 
L 1294 2234 
L 1294 2753 
L 1863 2753 
Q 2328 2753 2575 2939 
Q 2822 3125 2822 3475 
Q 2822 3834 2567 4026 
Q 2313 4219 1838 4219 
Q 1578 4219 1281 4162 
Q 984 4106 628 3988 
L 628 4550 
Q 988 4650 1302 4700 
Q 1616 4750 1894 4750 
Q 2613 4750 3031 4423 
Q 3450 4097 3450 3541 
Q 3450 3153 3228 2886 
Q 3006 2619 2597 2516 
z
" transform="scale(0.015625)"/>
      <path id="DejaVuSans-35" d="M 691 4666 
L 3169 4666 
L 3169 4134 
L 1269 4134 
L 1269 2991 
Q 1406 3038 1543 3061 
Q 1681 3084 1819 3084 
Q 2600 3084 3056 2656 
Q 3513 2228 3513 1497 
Q 3513 744 3044 326 
Q 2575 -91 1722 -91 
Q 1428 -91 1123 -41 
Q 819 9 494 109 
L 494 744 
Q 775 591 1075 516 
Q 1375 441 1709 441 
Q 2250 441 2565 725 
Q 2881 1009 2881 1497 
Q 2881 1984 2565 2268 
Q 2250 2553 1709 2553 
Q 1456 2553 1204 2497 
Q 953 2441 691 2322 
L 691 4666 
z
" transform="scale(0.015625)"/>
     </defs>
     <use xlink:href="#DejaVuSans-33"/>
     <use xlink:href="#DejaVuSans-2e" x="63.623047"/>
     <use xlink:href="#DejaVuSans-35" x="95.410156"/>
     <use xlink:href="#DejaVuSans-6d" x="159.033203"/>
    </g>
   </g>
   <g id="text_10">
    <g id="patch_9">
     <path d="M 411.550824 614.694869 
L 438.476761 614.694869 
Q 441.101761 614.694869 441.101761 612.069869 
L 441.101761 601.907838 
Q 441.101761 599.282838 438.476761 599.282838 
L 411.550824 599.282838 
Q 408.925824 599.282838 408.925824 601.907838 
L 408.925824 612.069869 
Q 408.925824 614.694869 411.550824 614.694869 
z
" style="fill: #ffffff; opacity: 0.95; stroke: #b0bec5; stroke-linejoin: miter"/>
    </g>
    <!-- 3.4m -->
    <g style="fill: #1a1a1a" transform="translate(411.550824 609.886197)scale(0.105 -0.105)">
     <use xlink:href="#DejaVuSans-33"/>
     <use xlink:href="#DejaVuSans-2e" x="63.623047"/>
     <use xlink:href="#DejaVuSans-34" x="95.410156"/>
     <use xlink:href="#DejaVuSans-6d" x="159.033203"/>
    </g>
   </g>
   <g id="text_11">
    <g id="patch_10">
     <path d="M 222.779216 500.294157 
L 249.705153 500.294157 
Q 252.330153 500.294157 252.330153 497.669157 
L 252.330153 487.507126 
Q 252.330153 484.882126 249.705153 484.882126 
L 222.779216 484.882126 
Q 220.154216 484.882126 220.154216 487.507126 
L 220.154216 497.669157 
Q 220.154216 500.294157 222.779216 500.294157 
z
" style="fill: #ffffff; opacity: 0.95; stroke: #b0bec5; stroke-linejoin: miter"/>
    </g>
    <!-- 2.0m -->
    <g style="fill: #1a1a1a" transform="translate(222.779216 495.485485)scale(0.105 -0.105)">
     <defs>
      <path id="DejaVuSans-32" d="M 1228 531 
L 3431 531 
L 3431 0 
L 469 0 
L 469 531 
Q 828 903 1448 1529 
Q 2069 2156 2228 2338 
Q 2531 2678 2651 2914 
Q 2772 3150 2772 3378 
Q 2772 3750 2511 3984 
Q 2250 4219 1831 4219 
Q 1534 4219 1204 4116 
Q 875 4013 500 3803 
L 500 4441 
Q 881 4594 1212 4672 
Q 1544 4750 1819 4750 
Q 2544 4750 2975 4387 
Q 3406 4025 3406 3419 
Q 3406 3131 3298 2873 
Q 3191 2616 2906 2266 
Q 2828 2175 2409 1742 
Q 1991 1309 1228 531 
z
" transform="scale(0.015625)"/>
     </defs>
     <use xlink:href="#DejaVuSans-32"/>
     <use xlink:href="#DejaVuSans-2e" x="63.623047"/>
     <use xlink:href="#DejaVuSans-30" x="95.410156"/>
     <use xlink:href="#DejaVuSans-6d" x="159.033203"/>
    </g>
   </g>
   <g id="text_12">
    <g id="patch_11">
     <path d="M 226.448407 504.401877 
L 253.374344 504.401877 
Q 255.999344 504.401877 255.999344 501.776877 
L 255.999344 491.614846 
Q 255.999344 488.989846 253.374344 488.989846 
L 226.448407 488.989846 
Q 223.823407 488.989846 223.823407 491.614846 
L 223.823407 501.776877 
Q 223.823407 504.401877 226.448407 504.401877 
z
" style="fill: #ffffff; opacity: 0.95; stroke: #b0bec5; stroke-linejoin: miter"/>
    </g>
    <!-- 2.1m -->
    <g style="fill: #1a1a1a" transform="translate(226.448407 499.593205)scale(0.105 -0.105)">
     <defs>
      <path id="DejaVuSans-31" d="M 794 531 
L 1825 531 
L 1825 4091 
L 703 3866 
L 703 4441 
L 1819 4666 
L 2450 4666 
L 2450 531 
L 3481 531 
L 3481 0 
L 794 0 
L 794 531 
z
" transform="scale(0.015625)"/>
     </defs>
     <use xlink:href="#DejaVuSans-32"/>
     <use xlink:href="#DejaVuSans-2e" x="63.623047"/>
     <use xlink:href="#DejaVuSans-31" x="95.410156"/>
     <use xlink:href="#DejaVuSans-6d" x="159.033203"/>
    </g>
   </g>
   <g id="text_13">
    <g id="patch_12">
     <path d="M 208.227248 595.230474 
L 235.153185 595.230474 
Q 237.778185 595.230474 237.778185 592.605474 
L 237.778185 582.443443 
Q 237.778185 579.818443 235.153185 579.818443 
L 208.227248 579.818443 
Q 205.602248 579.818443 205.602248 582.443443 
L 205.602248 592.605474 
Q 205.602248 595.230474 208.227248 595.230474 
z
" style="fill: #ffffff; opacity: 0.95; stroke: #b0bec5; stroke-linejoin: miter"/>
    </g>
    <!-- 0.1m -->
    <g style="fill: #1a1a1a" transform="translate(208.227248 590.421802)scale(0.105 -0.105)">
     <use xlink:href="#DejaVuSans-30"/>
     <use xlink:href="#DejaVuSans-2e" x="63.623047"/>
     <use xlink:href="#DejaVuSans-31" x="95.410156"/>
     <use xlink:href="#DejaVuSans-6d" x="159.033203"/>
    </g>
   </g>
   <g id="PathCollection_1">
    <defs>
     <path id="m995d55c172" d="M 0 5.97913 
C 1.585684 5.97913 3.106636 5.349131 4.227884 4.227884 
C 5.349131 3.106636 5.97913 1.585684 5.97913 0 
C 5.97913 -1.585684 5.349131 -3.106636 4.227884 -4.227884 
C 3.106636 -5.349131 1.585684 -5.97913 0 -5.97913 
C -1.585684 -5.97913 -3.106636 -5.349131 -4.227884 -4.227884 
C -5.349131 -3.106636 -5.97913 -1.585684 -5.97913 0 
C -5.97913 1.585684 -5.349131 3.106636 -4.227884 4.227884 
C -3.106636 5.349131 -1.585684 5.97913 0 5.97913 
z
" style="stroke: #ef6c00; stroke-width: 1.1"/>
    </defs>
    <g clip-path="url(#pba69d086b6)">
     <use xlink:href="#m995d55c172" x="439.565761" y="512.052536" style="fill: #ffa43a; stroke: #ef6c00; stroke-width: 1.1"/>
    </g>
   </g>
   <g id="PathCollection_2">
    <g clip-path="url(#pba69d086b6)">
     <use xlink:href="#m995d55c172" x="421.344602" y="602.881133" style="fill: #ffa43a; stroke: #ef6c00; stroke-width: 1.1"/>
    </g>
   </g>
   <g id="PathCollection_3">
    <g clip-path="url(#pba69d086b6)">
     <use xlink:href="#m995d55c172" x="425.013793" y="606.988853" style="fill: #ffa43a; stroke: #ef6c00; stroke-width: 1.1"/>
    </g>
   </g>
   <g id="PathCollection_4">
    <g clip-path="url(#pba69d086b6)">
     <use xlink:href="#m995d55c172" x="236.242185" y="492.588141" style="fill: #ffa43a; stroke: #ef6c00; stroke-width: 1.1"/>
    </g>
   </g>
   <g id="PathCollection_5">
    <g clip-path="url(#pba69d086b6)">
     <use xlink:href="#m995d55c172" x="239.911376" y="496.695862" style="fill: #ffa43a; stroke: #ef6c00; stroke-width: 1.1"/>
    </g>
   </g>
   <g id="PathCollection_6">
    <g clip-path="url(#pba69d086b6)">
     <use xlink:href="#m995d55c172" x="221.690217" y="587.524458" style="fill: #ffa43a; stroke: #ef6c00; stroke-width: 1.1"/>
    </g>
   </g>
   <g id="text_14">
    <g id="patch_13">
     <path d="M 439.565761 518.391599 
C 441.2469 518.391599 442.85941 517.723675 444.048155 516.53493 
C 445.236899 515.346185 445.904823 513.733675 445.904823 512.052536 
C 445.904823 510.371397 445.236899 508.758887 444.048155 507.570142 
C 442.85941 506.381397 441.2469 505.713474 439.565761 505.713474 
C 437.884622 505.713474 436.272111 506.381397 435.083366 507.570142 
C 433.894622 508.758887 433.226698 510.371397 433.226698 512.052536 
C 433.226698 513.733675 433.894622 515.346185 435.083366 516.53493 
C 436.272111 517.723675 437.884622 518.391599 439.565761 518.391599 
z
" style="opacity: 0.7"/>
    </g>
    <!-- A -->
    <g style="fill: #ffffff" transform="translate(435.696229 514.811911)scale(0.1 -0.1)">
     <defs>
      <path id="DejaVuSans-Bold-41" d="M 3419 850 
L 1538 850 
L 1241 0 
L 31 0 
L 1759 4666 
L 3194 4666 
L 4922 0 
L 3713 0 
L 3419 850 
z
M 1838 1716 
L 3116 1716 
L 2478 3572 
L 1838 1716 
z
" transform="scale(0.015625)"/>
     </defs>
     <use xlink:href="#DejaVuSans-Bold-41"/>
    </g>
   </g>
   <g id="text_15">
    <g id="patch_14">
     <path d="M 421.344602 609.220195 
C 423.025741 609.220195 424.638251 608.552272 425.826996 607.363527 
C 427.015741 606.174782 427.683664 604.562272 427.683664 602.881133 
C 427.683664 601.199994 427.015741 599.587483 425.826996 598.398739 
C 424.638251 597.209994 423.025741 596.54207 421.344602 596.54207 
C 419.663463 596.54207 418.050952 597.209994 416.862208 598.398739 
C 415.673463 599.587483 415.005539 601.199994 415.005539 602.881133 
C 415.005539 604.562272 415.673463 606.174782 416.862208 607.363527 
C 418.050952 608.552272 419.663463 609.220195 421.344602 609.220195 
z
" style="opacity: 0.7"/>
    </g>
    <!-- B -->
    <g style="fill: #ffffff" transform="translate(417.533664 605.640508)scale(0.1 -0.1)">
     <defs>
      <path id="DejaVuSans-Bold-42" d="M 2456 2859 
Q 2741 2859 2887 2984 
Q 3034 3109 3034 3353 
Q 3034 3594 2887 3720 
Q 2741 3847 2456 3847 
L 1791 3847 
L 1791 2859 
L 2456 2859 
z
M 2497 819 
Q 2859 819 3042 972 
Q 3225 1125 3225 1434 
Q 3225 1738 3044 1889 
Q 2863 2041 2497 2041 
L 1791 2041 
L 1791 819 
L 2497 819 
z
M 3616 2497 
Q 4003 2384 4215 2081 
Q 4428 1778 4428 1338 
Q 4428 663 3972 331 
Q 3516 0 2584 0 
L 588 0 
L 588 4666 
L 2394 4666 
Q 3366 4666 3802 4372 
Q 4238 4078 4238 3431 
Q 4238 3091 4078 2852 
Q 3919 2613 3616 2497 
z
" transform="scale(0.015625)"/>
     </defs>
     <use xlink:href="#DejaVuSans-Bold-42"/>
    </g>
   </g>
   <g id="text_16">
    <g id="patch_15">
     <path d="M 425.013793 613.327916 
C 426.694932 613.327916 428.307442 612.659992 429.496187 611.471247 
C 430.684931 610.282503 431.352855 608.669992 431.352855 606.988853 
C 431.352855 605.307714 430.684931 603.695204 429.496187 602.506459 
C 428.307442 601.317714 426.694932 600.649791 425.013793 600.649791 
C 423.332654 600.649791 421.720143 601.317714 420.531399 602.506459 
C 419.342654 603.695204 418.67473 605.307714 418.67473 606.988853 
C 418.67473 608.669992 419.342654 610.282503 420.531399 611.471247 
C 421.720143 612.659992 423.332654 613.327916 425.013793 613.327916 
z
" style="opacity: 0.7"/>
    </g>
    <!-- C -->
    <g style="fill: #ffffff" transform="translate(421.344261 609.748228)scale(0.1 -0.1)">
     <defs>
      <path id="DejaVuSans-Bold-43" d="M 4288 256 
Q 3956 84 3597 -3 
Q 3238 -91 2847 -91 
Q 1681 -91 1000 561 
Q 319 1213 319 2328 
Q 319 3447 1000 4098 
Q 1681 4750 2847 4750 
Q 3238 4750 3597 4662 
Q 3956 4575 4288 4403 
L 4288 3438 
Q 3953 3666 3628 3772 
Q 3303 3878 2944 3878 
Q 2300 3878 1931 3465 
Q 1563 3053 1563 2328 
Q 1563 1606 1931 1193 
Q 2300 781 2944 781 
Q 3303 781 3628 887 
Q 3953 994 4288 1222 
L 4288 256 
z
" transform="scale(0.015625)"/>
     </defs>
     <use xlink:href="#DejaVuSans-Bold-43"/>
    </g>
   </g>
   <g id="text_17">
    <g id="patch_16">
     <path d="M 236.242185 498.927204 
C 237.923324 498.927204 239.535834 498.25928 240.724579 497.070535 
C 241.913324 495.881791 242.581247 494.26928 242.581247 492.588141 
C 242.581247 490.907002 241.913324 489.294492 240.724579 488.105747 
C 239.535834 486.917002 237.923324 486.249079 236.242185 486.249079 
C 234.561046 486.249079 232.948535 486.917002 231.759791 488.105747 
C 230.571046 489.294492 229.903122 490.907002 229.903122 492.588141 
C 229.903122 494.26928 230.571046 495.881791 231.759791 497.070535 
C 232.948535 498.25928 234.561046 498.927204 236.242185 498.927204 
z
" style="opacity: 0.7"/>
    </g>
    <!-- D -->
    <g style="fill: #ffffff" transform="translate(232.091403 495.347516)scale(0.1 -0.1)">
     <defs>
      <path id="DejaVuSans-Bold-44" d="M 1791 3756 
L 1791 909 
L 2222 909 
Q 2959 909 3348 1275 
Q 3738 1641 3738 2338 
Q 3738 3031 3350 3393 
Q 2963 3756 2222 3756 
L 1791 3756 
z
M 588 4666 
L 1856 4666 
Q 2919 4666 3439 4514 
Q 3959 4363 4331 4000 
Q 4659 3684 4818 3271 
Q 4978 2859 4978 2338 
Q 4978 1809 4818 1395 
Q 4659 981 4331 666 
Q 3956 303 3431 151 
Q 2906 0 1856 0 
L 588 0 
L 588 4666 
z
" transform="scale(0.015625)"/>
     </defs>
     <use xlink:href="#DejaVuSans-Bold-44"/>
    </g>
   </g>
   <g id="text_18">
    <g id="patch_17">
     <path d="M 239.911376 503.034924 
C 241.592515 503.034924 243.205025 502.367001 244.39377 501.178256 
C 245.582514 499.989511 246.250438 498.377001 246.250438 496.695862 
C 246.250438 495.014723 245.582514 493.402212 244.39377 492.213468 
C 243.205025 491.024723 241.592515 490.356799 239.911376 490.356799 
C 238.230237 490.356799 236.617726 491.024723 235.428982 492.213468 
C 234.240237 493.402212 233.572313 495.014723 233.572313 496.695862 
C 233.572313 498.377001 234.240237 499.989511 235.428982 501.178256 
C 236.617726 502.367001 238.230237 503.034924 239.911376 503.034924 
z
" style="opacity: 0.7"/>
    </g>
    <!-- E -->
    <g style="fill: #ffffff" transform="translate(236.495751 499.455237)scale(0.1 -0.1)">
     <use xlink:href="#DejaVuSans-Bold-45"/>
    </g>
   </g>
   <g id="text_19">
    <g id="patch_18">
     <path d="M 221.690217 593.863521 
C 223.371356 593.863521 224.983866 593.195597 226.172611 592.006853 
C 227.361356 590.818108 228.029279 589.205597 228.029279 587.524458 
C 228.029279 585.843319 227.361356 584.230809 226.172611 583.042064 
C 224.983866 581.85332 223.371356 581.185396 221.690217 581.185396 
C 220.009078 581.185396 218.396567 581.85332 217.207823 583.042064 
C 216.019078 584.230809 215.351154 585.843319 215.351154 587.524458 
C 215.351154 589.205597 216.019078 590.818108 217.207823 592.006853 
C 218.396567 593.195597 220.009078 593.863521 221.690217 593.863521 
z
" style="opacity: 0.7"/>
    </g>
    <!-- F -->
    <g style="fill: #ffffff" transform="translate(218.274592 590.283833)scale(0.1 -0.1)">
     <defs>
      <path id="DejaVuSans-Bold-46" d="M 588 4666 
L 3834 4666 
L 3834 3756 
L 1791 3756 
L 1791 2888 
L 3713 2888 
L 3713 1978 
L 1791 1978 
L 1791 0 
L 588 0 
L 588 4666 
z
" transform="scale(0.015625)"/>
     </defs>
     <use xlink:href="#DejaVuSans-Bold-46"/>
    </g>
   </g>
   <g id="PathCollection_7">
    <defs>
     <path id="mdc2a06fb39" d="M 0 7.745967 
C 2.054254 7.745967 4.024648 6.929803 5.477226 5.477226 
C 6.929803 4.024648 7.745967 2.054254 7.745967 0 
C 7.745967 -2.054254 6.929803 -4.024648 5.477226 -5.477226 
C 4.024648 -6.929803 2.054254 -7.745967 0 -7.745967 
C -2.054254 -7.745967 -4.024648 -6.929803 -5.477226 -5.477226 
C -6.929803 -4.024648 -7.745967 -2.054254 -7.745967 0 
C -7.745967 2.054254 -6.929803 4.024648 -5.477226 5.477226 
C -4.024648 6.929803 -2.054254 7.745967 0 7.745967 
z
" style="stroke: #c62828; stroke-width: 0.8"/>
    </defs>
    <g clip-path="url(#pba69d086b6)">
     <use xlink:href="#mdc2a06fb39" x="53.326636" y="811.93142" style="fill: #ff6b6b; stroke: #c62828; stroke-width: 0.8"/>
    </g>
   </g>
   <g id="PathCollection_8">
    <g clip-path="url(#pba69d086b6)">
     <use xlink:href="#mdc2a06fb39" x="892.660317" y="579.357937" style="fill: #ff6b6b; stroke: #c62828; stroke-width: 0.8"/>
    </g>
   </g>
   <g id="PathCollection_9">
    <g clip-path="url(#pba69d086b6)">
     <use xlink:href="#mdc2a06fb39" x="958.053361" y="463.508526" style="fill: #ff6b6b; stroke: #c62828; stroke-width: 0.8"/>
    </g>
   </g>
   <g id="PathCollection_10">
    <g clip-path="url(#pba69d086b6)">
     <use xlink:href="#mdc2a06fb39" x="975.859364" y="444.308908" style="fill: #ff6b6b; stroke: #c62828; stroke-width: 0.8"/>
    </g>
   </g>
   <g id="PathCollection_11">
    <g clip-path="url(#pba69d086b6)">
     <use xlink:href="#mdc2a06fb39" x="464.541946" y="331.266272" style="fill: #ff6b6b; stroke: #c62828; stroke-width: 0.8"/>
    </g>
   </g>
   <g id="PathCollection_12">
    <g clip-path="url(#pba69d086b6)">
     <use xlink:href="#mdc2a06fb39" x="450.078495" y="71.42233" style="fill: #ff6b6b; stroke: #c62828; stroke-width: 0.8"/>
    </g>
   </g>
   <g id="PathCollection_13">
    <g clip-path="url(#pba69d086b6)">
     <use xlink:href="#mdc2a06fb39" x="331.774013" y="547.045157" style="fill: #ff6b6b; stroke: #c62828; stroke-width: 0.8"/>
    </g>
   </g>
   <g id="text_20">
    <g id="patch_19">
     <path d="M 40.657027 818.266577 
L 65.996246 818.266577 
Q 67.976246 818.266577 67.976246 816.286577 
L 67.976246 807.576264 
Q 67.976246 805.596264 65.996246 805.596264 
L 40.657027 805.596264 
Q 38.677027 805.596264 38.677027 807.576264 
L 38.677027 816.286577 
Q 38.677027 818.266577 40.657027 818.266577 
z
" style="fill-opacity: 0.4"/>
    </g>
    <!-- chair -->
    <g style="fill: #ffffff" transform="translate(40.657027 814.414858)scale(0.09 -0.09)">
     <use xlink:href="#DejaVuSans-Bold-63"/>
     <use xlink:href="#DejaVuSans-Bold-68" x="59.277344"/>
     <use xlink:href="#DejaVuSans-Bold-61" x="130.46875"/>
     <use xlink:href="#DejaVuSans-Bold-69" x="197.949219"/>
     <use xlink:href="#DejaVuSans-Bold-72" x="232.226562"/>
    </g>
   </g>
   <g id="text_21">
    <g id="patch_20">
     <path d="M 883.16602 585.693093 
L 902.154614 585.693093 
Q 904.134614 585.693093 904.134614 583.713093 
L 904.134614 575.002781 
Q 904.134614 573.022781 902.154614 573.022781 
L 883.16602 573.022781 
Q 881.18602 573.022781 881.18602 575.002781 
L 881.18602 583.713093 
Q 881.18602 585.693093 883.16602 585.693093 
z
" style="fill-opacity: 0.4"/>
    </g>
    <!-- bed -->
    <g style="fill: #ffffff" transform="translate(883.16602 581.841375)scale(0.09 -0.09)">
     <defs>
      <path id="DejaVuSans-Bold-62" d="M 2400 722 
Q 2759 722 2948 984 
Q 3138 1247 3138 1747 
Q 3138 2247 2948 2509 
Q 2759 2772 2400 2772 
Q 2041 2772 1848 2508 
Q 1656 2244 1656 1747 
Q 1656 1250 1848 986 
Q 2041 722 2400 722 
z
M 1656 2988 
Q 1888 3294 2169 3439 
Q 2450 3584 2816 3584 
Q 3463 3584 3878 3070 
Q 4294 2556 4294 1747 
Q 4294 938 3878 423 
Q 3463 -91 2816 -91 
Q 2450 -91 2169 54 
Q 1888 200 1656 506 
L 1656 0 
L 538 0 
L 538 4863 
L 1656 4863 
L 1656 2988 
z
" transform="scale(0.015625)"/>
      <path id="DejaVuSans-Bold-64" d="M 2919 2988 
L 2919 4863 
L 4044 4863 
L 4044 0 
L 2919 0 
L 2919 506 
Q 2688 197 2409 53 
Q 2131 -91 1766 -91 
Q 1119 -91 703 423 
Q 288 938 288 1747 
Q 288 2556 703 3070 
Q 1119 3584 1766 3584 
Q 2128 3584 2408 3439 
Q 2688 3294 2919 2988 
z
M 2181 722 
Q 2541 722 2730 984 
Q 2919 1247 2919 1747 
Q 2919 2247 2730 2509 
Q 2541 2772 2181 2772 
Q 1825 2772 1636 2509 
Q 1447 2247 1447 1747 
Q 1447 1247 1636 984 
Q 1825 722 2181 722 
z
" transform="scale(0.015625)"/>
     </defs>
     <use xlink:href="#DejaVuSans-Bold-62"/>
     <use xlink:href="#DejaVuSans-Bold-65" x="71.582031"/>
     <use xlink:href="#DejaVuSans-Bold-64" x="139.404297"/>
    </g>
   </g>
   <g id="text_22">
    <g id="patch_21">
     <path d="M 942.705549 469.843682 
L 973.401174 469.843682 
Q 975.381174 469.843682 975.381174 467.863682 
L 975.381174 459.15337 
Q 975.381174 457.17337 973.401174 457.17337 
L 942.705549 457.17337 
Q 940.725549 457.17337 940.725549 459.15337 
L 940.725549 467.863682 
Q 940.725549 469.843682 942.705549 469.843682 
z
" style="fill-opacity: 0.4"/>
    </g>
    <!-- bench -->
    <g style="fill: #ffffff" transform="translate(942.705549 465.991963)scale(0.09 -0.09)">
     <use xlink:href="#DejaVuSans-Bold-62"/>
     <use xlink:href="#DejaVuSans-Bold-65" x="71.582031"/>
     <use xlink:href="#DejaVuSans-Bold-6e" x="139.404297"/>
     <use xlink:href="#DejaVuSans-Bold-63" x="210.595703"/>
     <use xlink:href="#DejaVuSans-Bold-68" x="269.873047"/>
    </g>
   </g>
   <g id="text_23">
    <g id="patch_22">
     <path d="M 963.189754 450.644064 
L 988.528973 450.644064 
Q 990.508973 450.644064 990.508973 448.664064 
L 990.508973 439.953752 
Q 990.508973 437.973752 988.528973 437.973752 
L 963.189754 437.973752 
Q 961.209754 437.973752 961.209754 439.953752 
L 961.209754 448.664064 
Q 961.209754 450.644064 963.189754 450.644064 
z
" style="fill-opacity: 0.4"/>
    </g>
    <!-- chair -->
    <g style="fill: #ffffff" transform="translate(963.189754 446.792345)scale(0.09 -0.09)">
     <use xlink:href="#DejaVuSans-Bold-63"/>
     <use xlink:href="#DejaVuSans-Bold-68" x="59.277344"/>
     <use xlink:href="#DejaVuSans-Bold-61" x="130.46875"/>
     <use xlink:href="#DejaVuSans-Bold-69" x="197.949219"/>
     <use xlink:href="#DejaVuSans-Bold-72" x="232.226562"/>
    </g>
   </g>
   <g id="text_24">
    <g id="patch_23">
     <path d="M 448.277961 337.601428 
L 480.80593 337.601428 
Q 482.78593 337.601428 482.78593 335.621428 
L 482.78593 326.911115 
Q 482.78593 324.931115 480.80593 324.931115 
L 448.277961 324.931115 
Q 446.297961 324.931115 446.297961 326.911115 
L 446.297961 335.621428 
Q 446.297961 337.601428 448.277961 337.601428 
z
" style="fill-opacity: 0.4"/>
    </g>
    <!-- laptop -->
    <g style="fill: #ffffff" transform="translate(448.277961 333.749709)scale(0.09 -0.09)">
     <use xlink:href="#DejaVuSans-Bold-6c"/>
     <use xlink:href="#DejaVuSans-Bold-61" x="34.277344"/>
     <use xlink:href="#DejaVuSans-Bold-70" x="101.757812"/>
     <use xlink:href="#DejaVuSans-Bold-74" x="173.339844"/>
     <use xlink:href="#DejaVuSans-Bold-6f" x="221.142578"/>
     <use xlink:href="#DejaVuSans-Bold-70" x="289.84375"/>
    </g>
   </g>
   <g id="text_25">
    <g id="patch_24">
     <path d="M 437.408886 77.757486 
L 462.748105 77.757486 
Q 464.728105 77.757486 464.728105 75.777486 
L 464.728105 67.067173 
Q 464.728105 65.087173 462.748105 65.087173 
L 437.408886 65.087173 
Q 435.428886 65.087173 435.428886 67.067173 
L 435.428886 75.777486 
Q 435.428886 77.757486 437.408886 77.757486 
z
" style="fill-opacity: 0.4"/>
    </g>
    <!-- chair -->
    <g style="fill: #ffffff" transform="translate(437.408886 73.905767)scale(0.09 -0.09)">
     <use xlink:href="#DejaVuSans-Bold-63"/>
     <use xlink:href="#DejaVuSans-Bold-68" x="59.277344"/>
     <use xlink:href="#DejaVuSans-Bold-61" x="130.46875"/>
     <use xlink:href="#DejaVuSans-Bold-69" x="197.949219"/>
     <use xlink:href="#DejaVuSans-Bold-72" x="232.226562"/>
    </g>
   </g>
   <g id="text_26">
    <g id="patch_25">
     <path d="M 319.104403 553.380313 
L 344.443622 553.380313 
Q 346.423622 553.380313 346.423622 551.400313 
L 346.423622 542.690001 
Q 346.423622 540.710001 344.443622 540.710001 
L 319.104403 540.710001 
Q 317.124403 540.710001 317.124403 542.690001 
L 317.124403 551.400313 
Q 317.124403 553.380313 319.104403 553.380313 
z
" style="fill-opacity: 0.4"/>
    </g>
    <!-- chair -->
    <g style="fill: #ffffff" transform="translate(319.104403 549.528594)scale(0.09 -0.09)">
     <use xlink:href="#DejaVuSans-Bold-63"/>
     <use xlink:href="#DejaVuSans-Bold-68" x="59.277344"/>
     <use xlink:href="#DejaVuSans-Bold-61" x="130.46875"/>
     <use xlink:href="#DejaVuSans-Bold-69" x="197.949219"/>
     <use xlink:href="#DejaVuSans-Bold-72" x="232.226562"/>
    </g>
   </g>
   <g id="PathCollection_14">
    <defs>
     <path id="m5d4a55e15c" d="M 0 19.150718 
C 5.07883 19.150718 9.950328 17.132878 13.541603 13.541603 
C 17.132878 9.950328 19.150718 5.07883 19.150718 0 
C 19.150718 -5.07883 17.132878 -9.950328 13.541603 -13.541603 
C 9.950328 -17.132878 5.07883 -19.150718 0 -19.150718 
C -5.07883 -19.150718 -9.950328 -17.132878 -13.541603 -13.541603 
C -17.132878 -9.950328 -19.150718 -5.07883 -19.150718 0 
C -19.150718 5.07883 -17.132878 9.950328 -13.541603 13.541603 
C -9.950328 17.132878 -5.07883 19.150718 0 19.150718 
z
" style="stroke: #455a64; stroke-width: 1.4"/>
    </defs>
    <g clip-path="url(#pba69d086b6)">
     <use xlink:href="#m5d4a55e15c" x="624.668178" y="622.345528" style="fill: #56c6c6; stroke: #455a64; stroke-width: 1.4"/>
    </g>
   </g>
   <g id="PathCollection_15">
    <defs>
     <path id="mbb9fd0fbd1" d="M 0 19.150718 
C 5.07883 19.150718 9.950328 17.132878 13.541603 13.541603 
C 17.132878 9.950328 19.150718 5.07883 19.150718 0 
C 19.150718 -5.07883 17.132878 -9.950328 13.541603 -13.541603 
C 9.950328 -17.132878 5.07883 -19.150718 0 -19.150718 
C -5.07883 -19.150718 -9.950328 -17.132878 -13.541603 -13.541603 
C -17.132878 -9.950328 -19.150718 -5.07883 -19.150718 0 
C -19.150718 5.07883 -17.132878 9.950328 -13.541603 13.541603 
C -9.950328 17.132878 -5.07883 19.150718 0 19.150718 
z
" style="stroke: #455a64; stroke-width: 1.4"/>
    </defs>
    <g clip-path="url(#pba69d086b6)">
     <use xlink:href="#mbb9fd0fbd1" x="254.463344" y="401.759545" style="fill: #f28b82; stroke: #455a64; stroke-width: 1.4"/>
    </g>
   </g>
   <g id="PathCollection_16">
    <defs>
     <path id="m805c966eb6" d="M 0 19.150718 
C 5.07883 19.150718 9.950328 17.132878 13.541603 13.541603 
C 17.132878 9.950328 19.150718 5.07883 19.150718 0 
C 19.150718 -5.07883 17.132878 -9.950328 13.541603 -13.541603 
C 9.950328 -17.132878 5.07883 -19.150718 0 -19.150718 
C -5.07883 -19.150718 -9.950328 -17.132878 -13.541603 -13.541603 
C -17.132878 -9.950328 -19.150718 -5.07883 -19.150718 0 
C -19.150718 5.07883 -17.132878 9.950328 -13.541603 13.541603 
C -9.950328 17.132878 -5.07883 19.150718 0 19.150718 
z
" style="stroke: #455a64; stroke-width: 1.4"/>
    </defs>
    <g clip-path="url(#pba69d086b6)">
     <use xlink:href="#m805c966eb6" x="218.021026" y="583.416738" style="fill: #a78bfa; stroke: #455a64; stroke-width: 1.4"/>
    </g>
   </g>
   <g id="PathCollection_17">
    <defs>
     <path id="m103474fb92" d="M 0 19.150718 
C 5.07883 19.150718 9.950328 17.132878 13.541603 13.541603 
C 17.132878 9.950328 19.150718 5.07883 19.150718 0 
C 19.150718 -5.07883 17.132878 -9.950328 13.541603 -13.541603 
C 9.950328 -17.132878 5.07883 -19.150718 0 -19.150718 
C -5.07883 -19.150718 -9.950328 -17.132878 -13.541603 -13.541603 
C -17.132878 -9.950328 -19.150718 -5.07883 -19.150718 0 
C -19.150718 5.07883 -17.132878 9.950328 -13.541603 13.541603 
C -9.950328 17.132878 -5.07883 19.150718 0 19.150718 
z
" style="stroke: #455a64; stroke-width: 1.4"/>
    </defs>
    <g clip-path="url(#pba69d086b6)">
     <use xlink:href="#m103474fb92" x="225.359408" y="591.632179" style="fill: #7dc4ff; stroke: #455a64; stroke-width: 1.4"/>
    </g>
   </g>
   <g id="text_27">
    <g id="patch_26">
     <path d="M 594.553803 631.152403 
L 654.782553 631.152403 
Q 657.782553 631.152403 657.782553 628.152403 
L 657.782553 616.538653 
Q 657.782553 613.538653 654.782553 613.538653 
L 594.553803 613.538653 
Q 591.553803 613.538653 591.553803 616.538653 
L 591.553803 628.152403 
Q 591.553803 631.152403 594.553803 631.152403 
z
" style="fill-opacity: 0.15"/>
    </g>
    <!-- bedroom -->
    <g style="fill: #ffffff" transform="translate(594.553803 625.656778)scale(0.12 -0.12)">
     <use xlink:href="#DejaVuSans-Bold-62"/>
     <use xlink:href="#DejaVuSans-Bold-65" x="71.582031"/>
     <use xlink:href="#DejaVuSans-Bold-64" x="139.404297"/>
     <use xlink:href="#DejaVuSans-Bold-72" x="210.986328"/>
     <use xlink:href="#DejaVuSans-Bold-6f" x="260.302734"/>
     <use xlink:href="#DejaVuSans-Bold-6f" x="329.003906"/>
     <use xlink:href="#DejaVuSans-Bold-6d" x="397.705078"/>
    </g>
   </g>
   <g id="text_28">
    <g id="patch_27">
     <path d="M 235.815531 417.331982 
L 273.111156 417.331982 
Q 276.111156 417.331982 276.111156 414.331982 
L 276.111156 389.093357 
Q 276.111156 386.093357 273.111156 386.093357 
L 235.815531 386.093357 
Q 232.815531 386.093357 232.815531 389.093357 
L 232.815531 414.331982 
Q 232.815531 417.331982 235.815531 417.331982 
z
" style="fill-opacity: 0.15"/>
    </g>
    <!-- living -->
    <g style="fill: #ffffff" transform="translate(235.815531 398.305232)scale(0.12 -0.12)">
     <use xlink:href="#DejaVuSans-Bold-6c"/>
     <use xlink:href="#DejaVuSans-Bold-69" x="34.277344"/>
     <use xlink:href="#DejaVuSans-Bold-76" x="68.554688"/>
     <use xlink:href="#DejaVuSans-Bold-69" x="133.740234"/>
     <use xlink:href="#DejaVuSans-Bold-6e" x="168.017578"/>
     <use xlink:href="#DejaVuSans-Bold-67" x="239.208984"/>
    </g>
    <!-- room -->
    <g style="fill: #ffffff" transform="translate(237.008031 411.836357)scale(0.12 -0.12)">
     <use xlink:href="#DejaVuSans-Bold-72"/>
     <use xlink:href="#DejaVuSans-Bold-6f" x="49.316406"/>
     <use xlink:href="#DejaVuSans-Bold-6f" x="118.017578"/>
     <use xlink:href="#DejaVuSans-Bold-6d" x="186.71875"/>
    </g>
   </g>
   <g id="text_29">
    <g id="patch_28">
     <path d="M 196.775401 598.989175 
L 239.266651 598.989175 
Q 242.266651 598.989175 242.266651 595.989175 
L 242.266651 570.75055 
Q 242.266651 567.75055 239.266651 567.75055 
L 196.775401 567.75055 
Q 193.775401 567.75055 193.775401 570.75055 
L 193.775401 595.989175 
Q 193.775401 598.989175 196.775401 598.989175 
z
" style="fill-opacity: 0.15"/>
    </g>
    <!-- dining -->
    <g style="fill: #ffffff" transform="translate(196.775401 579.962425)scale(0.12 -0.12)">
     <use xlink:href="#DejaVuSans-Bold-64"/>
     <use xlink:href="#DejaVuSans-Bold-69" x="71.582031"/>
     <use xlink:href="#DejaVuSans-Bold-6e" x="105.859375"/>
     <use xlink:href="#DejaVuSans-Bold-69" x="177.050781"/>
     <use xlink:href="#DejaVuSans-Bold-6e" x="211.328125"/>
     <use xlink:href="#DejaVuSans-Bold-67" x="282.519531"/>
    </g>
    <!-- room -->
    <g style="fill: #ffffff" transform="translate(200.565713 593.49355)scale(0.12 -0.12)">
     <use xlink:href="#DejaVuSans-Bold-72"/>
     <use xlink:href="#DejaVuSans-Bold-6f" x="49.316406"/>
     <use xlink:href="#DejaVuSans-Bold-6f" x="118.017578"/>
     <use xlink:href="#DejaVuSans-Bold-6d" x="186.71875"/>
    </g>
   </g>
   <g id="text_30">
    <g id="patch_29">
     <path d="M 200.275658 600.439054 
L 250.443158 600.439054 
Q 253.443158 600.439054 253.443158 597.439054 
L 253.443158 585.825304 
Q 253.443158 582.825304 250.443158 582.825304 
L 200.275658 582.825304 
Q 197.275658 582.825304 197.275658 585.825304 
L 197.275658 597.439054 
Q 197.275658 600.439054 200.275658 600.439054 
z
" style="fill-opacity: 0.15"/>
    </g>
    <!-- kitchen -->
    <g style="fill: #ffffff" transform="translate(200.275658 594.943429)scale(0.12 -0.12)">
     <defs>
      <path id="DejaVuSans-Bold-6b" d="M 538 4863 
L 1656 4863 
L 1656 2216 
L 2944 3500 
L 4244 3500 
L 2534 1894 
L 4378 0 
L 3022 0 
L 1656 1459 
L 1656 0 
L 538 0 
L 538 4863 
z
" transform="scale(0.015625)"/>
     </defs>
     <use xlink:href="#DejaVuSans-Bold-6b"/>
     <use xlink:href="#DejaVuSans-Bold-69" x="66.503906"/>
     <use xlink:href="#DejaVuSans-Bold-74" x="100.78125"/>
     <use xlink:href="#DejaVuSans-Bold-63" x="148.583984"/>
     <use xlink:href="#DejaVuSans-Bold-68" x="207.861328"/>
     <use xlink:href="#DejaVuSans-Bold-65" x="279.052734"/>
     <use xlink:href="#DejaVuSans-Bold-6e" x="346.875"/>
    </g>
   </g>
  </g>
 </g>
 <defs>
  <clipPath id="pba69d086b6">
   <rect x="7.2" y="34.396875" width="1014.786" height="814.56"/>
  </clipPath>
 </defs>
</svg>
